<?xml version="1.0" standalone="no"?><!DOCTYPE svg PUBLIC "-//W3C//DTD SVG 1.1//EN" "http://www.w3.org/Graphics/SVG/1.1/DTD/svg11.dtd"><svg t="1726381091889" class="icon" viewBox="0 0 1024 1024" version="1.1" xmlns="http://www.w3.org/2000/svg" p-id="4534" xmlns:xlink="http://www.w3.org/1999/xlink" width="200" height="200"><path d="M512 512m-512 0a512 512 0 1 0 1024 0 512 512 0 1 0-1024 0Z" fill="#EDECEB" p-id="4535"></path><path d="M745.2416 578.176l0.9472 225.5872a78.7712 78.7712 0 0 1-38.912 68.0704l-154.6752 90.4192a77.3888 77.3888 0 0 1-77.824 0l-155.5968-89.4976a78.3872 78.3872 0 0 1-38.912-67.1232l-0.9216-225.5872 232.4992-136.0896" fill="#F9BA1C" p-id="4536"></path><path d="M944.384 466.3296l-199.1424 111.872-233.3952-134.2464V178.2784l195.4304-116.5312c24.064-13.9776 53.7088-14.8992 77.824-0.9216l158.3616 89.4976c24.064 13.9776 39.8336 40.064 39.8336 68.0448l0.9216 178.9696c0 28.9024-14.8224 55.0144-39.8336 68.992z" fill="#F9BA1C" p-id="4537"></path><path d="M280.2688 580.0448l-188.928-111.872c-24.0896-13.9776-37.9904-39.1424-37.9904-67.0976l-0.9216-180.8384c0-27.9808 14.8224-53.1456 37.9648-67.1232l150.0416-90.4192c24.0896-14.9248 54.656-14.9248 79.6672 0l192.6656 115.584v265.6768l-232.4992 136.0896z" fill="#F9BA1C" p-id="4538"></path><path d="M167.9872 379.3408l108.3136-66.048V180.224c0-60.4672-64.6144-97.6896-115.584-66.9952L89.7024 156.032c-23.6544 13.952-37.3248 40.0128-37.3248 66.9952v88.3968c0 61.4144 64.64 98.6112 115.6096 67.9168zM623.8208 379.8016l109.4144-66.048V180.6848c0-60.4672-65.28-97.6896-116.7616-66.9952l-109.4144 66.048v133.0688c0 60.4928 65.28 97.7152 116.7616 66.9952zM394.88 785.1776l109.4144-66.56v-134.144c0-60.9792-65.28-98.4832-116.7616-67.5328l-109.4144 66.5856v134.144c0.9216 60.9536 65.28 98.4832 116.7616 67.5072z" fill="#F8F7FB" opacity=".8" p-id="4539"></path><path d="M507.3408 998.7072c-12.1344 0-24.2688-2.7904-35.4816-9.2928l-192.256-109.7728A69.9392 69.9392 0 0 1 244.096 819.2l-0.9472-220.4672c0-25.1136 13.056-48.384 35.4816-61.3888l212.8128-123.7248c13.056-7.4496 30.7968-2.816 38.272 10.24 7.4496 13.0048 2.816 30.6688-10.2656 38.144l-211.8912 123.6992a14.848 14.848 0 0 0-7.4496 13.0304l0.9216 220.4672c0 5.5808 2.816 10.24 7.4752 13.0304l192.256 109.7728a14.3616 14.3616 0 0 0 14.9504 0l191.3344-110.72a14.848 14.848 0 0 0 7.4752-13.0048l-0.9472-245.6064c0-15.7952 12.1344-27.904 28.0064-27.904 15.872 0 28.0064 12.1088 28.0064 27.904l0.9216 245.6064c0 25.088-13.056 48.384-35.456 61.3888l-192.256 109.7728c-10.2912 6.5024-23.3472 9.2928-35.4816 9.2928z" fill="#613A00" p-id="4540"></path><path d="M374.784 841.4976c-15.872 0-27.9808-12.0832-27.9808-27.904l-0.9472-155.3408c0-25.1392 13.056-48.384 35.4816-61.4144l140.0064-80.9216c13.056-7.424 30.7968-2.816 38.2464 10.24 7.4752 13.0048 2.816 30.6944-10.24 38.144l-140.032 80.896a14.848 14.848 0 0 0-7.4496 13.056l0.9216 155.3408c0 14.8736-13.056 27.904-28.0064 27.904zM740.6848 593.1264c-12.1344 0-24.2688-2.816-35.4816-9.3184l-191.3344-109.7472c-21.4784-12.1088-35.4816-36.3008-35.4816-61.4144V197.76c0-25.1136 13.056-48.384 34.56-60.4672l193.2032-114.432c21.4528-13.0048 49.4592-13.0048 70.912-0.9216l196.0192 109.7728a70.4 70.4 0 0 1 36.4032 61.3888l0.9472 219.5456a69.2992 69.2992 0 0 1-36.4032 61.4144l-198.8096 110.6944a72.8576 72.8576 0 0 1-34.56 8.3712z m1.8688-524.672a17.6384 17.6384 0 0 0-7.4752 1.8688l-194.1504 114.432a14.848 14.848 0 0 0-7.4496 13.0048v215.808c0 5.6064 2.7904 10.24 7.4496 13.056l192.2816 109.7472a14.3616 14.3616 0 0 0 14.9248 0l197.888-109.7728a14.848 14.848 0 0 0 7.4752-13.0048l-0.9472-219.5456a14.848 14.848 0 0 0-7.4496-13.0304L749.056 71.2448a10.112 10.112 0 0 0-6.528-2.7904z" fill="#613A00" p-id="4541"></path><path d="M607.2064 435.9168c-15.872 0-28.0064-12.1088-28.0064-27.904V257.28c0-25.1136 13.056-48.384 34.56-60.4672l137.1904-80.9472c13.056-7.424 30.7968-3.712 38.272 10.24 7.4496 13.0304 3.7376 30.72-10.2656 38.144l-136.2944 80.9216a14.848 14.848 0 0 0-7.4496 13.056v150.6816c0 14.8736-12.1344 26.9824-28.0064 26.9824zM272.128 601.4976c-4.6848 0-9.344-0.9216-14.0032-3.712l-208.128-121.856c-21.504-12.1088-34.56-35.3792-34.56-60.4928L14.5152 194.048c0-25.1136 13.056-48.384 34.5344-60.4672L235.7248 22.8864c22.4-13.056 50.4064-13.056 71.8592 0l211.8912 126.5152c13.056 7.424 17.7152 25.088 9.3184 38.144-8.3968 13.0048-25.1904 17.664-38.272 9.2928l-210.944-125.5936a14.3616 14.3616 0 0 0-14.9248 0L77.9776 181.9392a14.848 14.848 0 0 0-7.4752 13.056l0.9472 221.3888c0 5.5808 2.816 10.24 7.4496 13.0048l208.1536 121.856c13.056 7.4496 17.7408 25.1392 10.2656 38.144-6.528 7.4496-15.872 12.1088-25.1904 12.1088z" fill="#613A00" p-id="4542"></path><path d="M145.1776 437.76c-15.872 0-28.0064-12.0832-28.0064-27.904l-0.9216-156.288c0-25.088 13.056-48.384 34.5344-60.4672l129.7408-77.2096c13.056-7.424 30.7968-3.712 38.272 10.24 7.4496 13.0304 3.7376 30.72-10.2656 38.144L178.7904 241.4848a14.848 14.848 0 0 0-7.4752 13.0304l0.9472 156.288c0.9216 14.8736-12.1344 26.9568-27.0848 26.9568z" fill="#613A00" p-id="4543"></path></svg>